<mxfile host="app.diagrams.net" modified="2022-09-22T16:24:40.194Z" agent="5.0 (Windows NT 10.0; Win64; x64) AppleWebKit/537.36 (KHTML, like Gecko) Chrome/105.0.0.0 Safari/537.36" etag="YhNjgDmTrycq16huUQoI" version="20.2.6" type="github">
  <diagram id="rU8d6s8BpGCFVZa3hC-L" name="Page-1">
    <mxGraphModel dx="1422" dy="1105" grid="1" gridSize="10" guides="1" tooltips="1" connect="1" arrows="1" fold="1" page="0" pageScale="1" pageWidth="1169" pageHeight="827" math="0" shadow="0">
      <root>
        <mxCell id="WIyWlLk6GJQsqaUBKTNV-0" />
        <mxCell id="WIyWlLk6GJQsqaUBKTNV-1" parent="WIyWlLk6GJQsqaUBKTNV-0" />
        <mxCell id="1OxyW0Cfibc23PzOv6HA-44" value="Russ Notes on Support Line" style="rounded=0;whiteSpace=wrap;html=1;fontSize=9;verticalAlign=top;" parent="WIyWlLk6GJQsqaUBKTNV-1" vertex="1">
          <mxGeometry x="360" y="1240" width="640" height="290" as="geometry" />
        </mxCell>
        <mxCell id="zRHetzy9wdYKqyNyWC3m-38" value="" style="edgeStyle=none;rounded=0;orthogonalLoop=1;jettySize=auto;html=1;fontSize=12;" parent="WIyWlLk6GJQsqaUBKTNV-1" source="zRHetzy9wdYKqyNyWC3m-5" target="zRHetzy9wdYKqyNyWC3m-37" edge="1">
          <mxGeometry relative="1" as="geometry" />
        </mxCell>
        <mxCell id="zRHetzy9wdYKqyNyWC3m-5" value="301-250-7200&lt;br&gt;ATTC Event Services" style="rounded=1;whiteSpace=wrap;html=1;" parent="WIyWlLk6GJQsqaUBKTNV-1" vertex="1">
          <mxGeometry x="10" y="120" width="150" height="60" as="geometry" />
        </mxCell>
        <mxCell id="zRHetzy9wdYKqyNyWC3m-41" value="" style="edgeStyle=none;rounded=0;orthogonalLoop=1;jettySize=auto;html=1;fontSize=12;" parent="WIyWlLk6GJQsqaUBKTNV-1" source="zRHetzy9wdYKqyNyWC3m-6" target="zRHetzy9wdYKqyNyWC3m-40" edge="1">
          <mxGeometry relative="1" as="geometry" />
        </mxCell>
        <mxCell id="zRHetzy9wdYKqyNyWC3m-6" value="301-250-7201&lt;br&gt;Sales" style="rounded=1;whiteSpace=wrap;html=1;" parent="WIyWlLk6GJQsqaUBKTNV-1" vertex="1">
          <mxGeometry x="10" y="280" width="150" height="60" as="geometry" />
        </mxCell>
        <mxCell id="zRHetzy9wdYKqyNyWC3m-49" value="" style="edgeStyle=none;rounded=0;orthogonalLoop=1;jettySize=auto;html=1;fontSize=12;" parent="WIyWlLk6GJQsqaUBKTNV-1" source="zRHetzy9wdYKqyNyWC3m-7" target="zRHetzy9wdYKqyNyWC3m-42" edge="1">
          <mxGeometry relative="1" as="geometry" />
        </mxCell>
        <mxCell id="zRHetzy9wdYKqyNyWC3m-7" value="301-250-7202&lt;br&gt;Support" style="rounded=1;whiteSpace=wrap;html=1;" parent="WIyWlLk6GJQsqaUBKTNV-1" vertex="1">
          <mxGeometry x="10" y="440" width="150" height="60" as="geometry" />
        </mxCell>
        <mxCell id="zRHetzy9wdYKqyNyWC3m-48" value="" style="edgeStyle=none;rounded=0;orthogonalLoop=1;jettySize=auto;html=1;fontSize=12;" parent="WIyWlLk6GJQsqaUBKTNV-1" source="zRHetzy9wdYKqyNyWC3m-12" target="zRHetzy9wdYKqyNyWC3m-43" edge="1">
          <mxGeometry relative="1" as="geometry" />
        </mxCell>
        <mxCell id="zRHetzy9wdYKqyNyWC3m-12" value="301-250-7238&lt;br&gt;Priority CC" style="rounded=1;whiteSpace=wrap;html=1;" parent="WIyWlLk6GJQsqaUBKTNV-1" vertex="1">
          <mxGeometry x="10" y="600" width="150" height="60" as="geometry" />
        </mxCell>
        <mxCell id="zRHetzy9wdYKqyNyWC3m-47" value="" style="edgeStyle=none;rounded=0;orthogonalLoop=1;jettySize=auto;html=1;fontSize=12;" parent="WIyWlLk6GJQsqaUBKTNV-1" source="zRHetzy9wdYKqyNyWC3m-14" target="zRHetzy9wdYKqyNyWC3m-45" edge="1">
          <mxGeometry relative="1" as="geometry" />
        </mxCell>
        <mxCell id="zRHetzy9wdYKqyNyWC3m-14" value="301-250-7250&lt;br&gt;Intellor" style="rounded=1;whiteSpace=wrap;html=1;" parent="WIyWlLk6GJQsqaUBKTNV-1" vertex="1">
          <mxGeometry x="10" y="760" width="150" height="60" as="geometry" />
        </mxCell>
        <mxCell id="zRHetzy9wdYKqyNyWC3m-46" value="" style="edgeStyle=none;rounded=0;orthogonalLoop=1;jettySize=auto;html=1;fontSize=12;" parent="WIyWlLk6GJQsqaUBKTNV-1" source="zRHetzy9wdYKqyNyWC3m-16" target="zRHetzy9wdYKqyNyWC3m-44" edge="1">
          <mxGeometry relative="1" as="geometry" />
        </mxCell>
        <mxCell id="zRHetzy9wdYKqyNyWC3m-16" value="855-717-0404&lt;br&gt;USDA FLF Support" style="rounded=1;whiteSpace=wrap;html=1;" parent="WIyWlLk6GJQsqaUBKTNV-1" vertex="1">
          <mxGeometry x="10" y="920" width="150" height="60" as="geometry" />
        </mxCell>
        <mxCell id="zRHetzy9wdYKqyNyWC3m-18" value="" style="endArrow=none;html=1;rounded=0;exitX=0.5;exitY=0;exitDx=0;exitDy=0;" parent="WIyWlLk6GJQsqaUBKTNV-1" source="zRHetzy9wdYKqyNyWC3m-5" edge="1">
          <mxGeometry width="50" height="50" relative="1" as="geometry">
            <mxPoint x="84.71000000000001" y="110" as="sourcePoint" />
            <mxPoint x="85.21000000000001" y="70" as="targetPoint" />
          </mxGeometry>
        </mxCell>
        <mxCell id="zRHetzy9wdYKqyNyWC3m-21" value="" style="endArrow=none;html=1;rounded=0;entryX=0.5;entryY=1;entryDx=0;entryDy=0;" parent="WIyWlLk6GJQsqaUBKTNV-1" edge="1">
          <mxGeometry width="50" height="50" relative="1" as="geometry">
            <mxPoint x="84.71000000000001" y="440" as="sourcePoint" />
            <mxPoint x="84.71000000000001" y="340" as="targetPoint" />
          </mxGeometry>
        </mxCell>
        <mxCell id="zRHetzy9wdYKqyNyWC3m-22" value="" style="endArrow=none;html=1;rounded=0;entryX=0.5;entryY=1;entryDx=0;entryDy=0;" parent="WIyWlLk6GJQsqaUBKTNV-1" edge="1">
          <mxGeometry width="50" height="50" relative="1" as="geometry">
            <mxPoint x="84.71000000000001" y="600" as="sourcePoint" />
            <mxPoint x="84.71000000000001" y="500" as="targetPoint" />
          </mxGeometry>
        </mxCell>
        <mxCell id="zRHetzy9wdYKqyNyWC3m-23" value="" style="endArrow=none;html=1;rounded=0;entryX=0.5;entryY=1;entryDx=0;entryDy=0;" parent="WIyWlLk6GJQsqaUBKTNV-1" edge="1">
          <mxGeometry width="50" height="50" relative="1" as="geometry">
            <mxPoint x="84.71000000000001" y="760" as="sourcePoint" />
            <mxPoint x="84.71000000000001" y="660" as="targetPoint" />
          </mxGeometry>
        </mxCell>
        <mxCell id="zRHetzy9wdYKqyNyWC3m-24" value="" style="endArrow=none;html=1;rounded=0;entryX=0.5;entryY=1;entryDx=0;entryDy=0;" parent="WIyWlLk6GJQsqaUBKTNV-1" edge="1">
          <mxGeometry width="50" height="50" relative="1" as="geometry">
            <mxPoint x="84.71000000000001" y="920" as="sourcePoint" />
            <mxPoint x="84.71000000000001" y="820" as="targetPoint" />
          </mxGeometry>
        </mxCell>
        <mxCell id="zRHetzy9wdYKqyNyWC3m-25" value="" style="endArrow=none;html=1;rounded=0;entryX=0.5;entryY=1;entryDx=0;entryDy=0;" parent="WIyWlLk6GJQsqaUBKTNV-1" edge="1">
          <mxGeometry width="50" height="50" relative="1" as="geometry">
            <mxPoint x="84.71000000000001" y="280" as="sourcePoint" />
            <mxPoint x="84.71000000000001" y="180" as="targetPoint" />
          </mxGeometry>
        </mxCell>
        <mxCell id="zRHetzy9wdYKqyNyWC3m-37" value="&lt;span style=&quot;&quot; data-lucid-content=&quot;{&amp;quot;t&amp;quot;:&amp;quot;Extension:200 Hunt Group: ATTCES&amp;quot;,&amp;quot;m&amp;quot;:[{&amp;quot;s&amp;quot;:0,&amp;quot;n&amp;quot;:&amp;quot;c&amp;quot;,&amp;quot;v&amp;quot;:&amp;quot;000000ff&amp;quot;,&amp;quot;e&amp;quot;:32},{&amp;quot;s&amp;quot;:0,&amp;quot;n&amp;quot;:&amp;quot;s&amp;quot;,&amp;quot;v&amp;quot;:13.333333333333334,&amp;quot;e&amp;quot;:32}]}&quot; data-lucid-type=&quot;application/vnd.lucid.text&quot;&gt;&lt;span style=&quot;color: rgb(0, 0, 0);&quot;&gt;Extension:200&lt;br&gt;Hunt Group: ATTCES&lt;/span&gt;&lt;/span&gt;" style="shape=hexagon;perimeter=hexagonPerimeter2;whiteSpace=wrap;html=1;fixedSize=1;" parent="WIyWlLk6GJQsqaUBKTNV-1" vertex="1">
          <mxGeometry x="200" y="120" width="160" height="60" as="geometry" />
        </mxCell>
        <mxCell id="zRHetzy9wdYKqyNyWC3m-51" value="" style="edgeStyle=none;rounded=0;orthogonalLoop=1;jettySize=auto;html=1;fontSize=16;exitX=1;exitY=0.5;exitDx=0;exitDy=0;entryX=-0.022;entryY=0.078;entryDx=0;entryDy=0;entryPerimeter=0;" parent="WIyWlLk6GJQsqaUBKTNV-1" source="zRHetzy9wdYKqyNyWC3m-39" target="zRHetzy9wdYKqyNyWC3m-50" edge="1">
          <mxGeometry relative="1" as="geometry">
            <mxPoint x="410.41" y="170.39" as="targetPoint" />
            <mxPoint x="360.0018367346939" y="170.00224489795914" as="sourcePoint" />
          </mxGeometry>
        </mxCell>
        <mxCell id="zRHetzy9wdYKqyNyWC3m-39" value="&lt;span style=&quot;&quot; data-lucid-content=&quot;{&amp;quot;t&amp;quot;:&amp;quot;Extension:200 Hunt Group: ATTCES&amp;quot;,&amp;quot;m&amp;quot;:[{&amp;quot;s&amp;quot;:0,&amp;quot;n&amp;quot;:&amp;quot;c&amp;quot;,&amp;quot;v&amp;quot;:&amp;quot;000000ff&amp;quot;,&amp;quot;e&amp;quot;:32},{&amp;quot;s&amp;quot;:0,&amp;quot;n&amp;quot;:&amp;quot;s&amp;quot;,&amp;quot;v&amp;quot;:13.333333333333334,&amp;quot;e&amp;quot;:32}]}&quot; data-lucid-type=&quot;application/vnd.lucid.text&quot;&gt;&lt;span style=&quot;color: rgb(0, 0, 0);&quot;&gt;Extension:200&lt;br&gt;Hunt Group: ATTCES&lt;/span&gt;&lt;/span&gt;" style="shape=hexagon;perimeter=hexagonPerimeter2;whiteSpace=wrap;html=1;fixedSize=1;" parent="WIyWlLk6GJQsqaUBKTNV-1" vertex="1">
          <mxGeometry x="200" y="120" width="160" height="60" as="geometry" />
        </mxCell>
        <mxCell id="zRHetzy9wdYKqyNyWC3m-52" value="" style="edgeStyle=none;rounded=0;orthogonalLoop=1;jettySize=auto;html=1;fontSize=16;entryX=0;entryY=0.219;entryDx=0;entryDy=0;entryPerimeter=0;" parent="WIyWlLk6GJQsqaUBKTNV-1" edge="1">
          <mxGeometry relative="1" as="geometry">
            <mxPoint x="410" y="309.34" as="targetPoint" />
            <mxPoint x="359.32472287196185" y="309.98708430794267" as="sourcePoint" />
          </mxGeometry>
        </mxCell>
        <mxCell id="zRHetzy9wdYKqyNyWC3m-40" value="&lt;span style=&quot;&quot; data-lucid-content=&quot;{&amp;quot;t&amp;quot;:&amp;quot;Extension:200 Hunt Group: ATTCES&amp;quot;,&amp;quot;m&amp;quot;:[{&amp;quot;s&amp;quot;:0,&amp;quot;n&amp;quot;:&amp;quot;c&amp;quot;,&amp;quot;v&amp;quot;:&amp;quot;000000ff&amp;quot;,&amp;quot;e&amp;quot;:32},{&amp;quot;s&amp;quot;:0,&amp;quot;n&amp;quot;:&amp;quot;s&amp;quot;,&amp;quot;v&amp;quot;:13.333333333333334,&amp;quot;e&amp;quot;:32}]}&quot; data-lucid-type=&quot;application/vnd.lucid.text&quot;&gt;&lt;span style=&quot;color: rgb(0, 0, 0);&quot;&gt;Extension:201&lt;br&gt;Hunt Group: SalesHG&lt;/span&gt;&lt;/span&gt;" style="shape=hexagon;perimeter=hexagonPerimeter2;whiteSpace=wrap;html=1;fixedSize=1;" parent="WIyWlLk6GJQsqaUBKTNV-1" vertex="1">
          <mxGeometry x="200" y="280" width="160" height="60" as="geometry" />
        </mxCell>
        <mxCell id="zRHetzy9wdYKqyNyWC3m-53" value="" style="edgeStyle=none;rounded=0;orthogonalLoop=1;jettySize=auto;html=1;fontSize=16;entryX=0.5;entryY=0;entryDx=0;entryDy=0;exitX=0.5;exitY=1;exitDx=0;exitDy=0;" parent="WIyWlLk6GJQsqaUBKTNV-1" source="zRHetzy9wdYKqyNyWC3m-42" target="zRHetzy9wdYKqyNyWC3m-43" edge="1">
          <mxGeometry relative="1" as="geometry" />
        </mxCell>
        <mxCell id="zRHetzy9wdYKqyNyWC3m-42" value="&lt;span style=&quot;&quot; data-lucid-content=&quot;{&amp;quot;t&amp;quot;:&amp;quot;Extension:200 Hunt Group: ATTCES&amp;quot;,&amp;quot;m&amp;quot;:[{&amp;quot;s&amp;quot;:0,&amp;quot;n&amp;quot;:&amp;quot;c&amp;quot;,&amp;quot;v&amp;quot;:&amp;quot;000000ff&amp;quot;,&amp;quot;e&amp;quot;:32},{&amp;quot;s&amp;quot;:0,&amp;quot;n&amp;quot;:&amp;quot;s&amp;quot;,&amp;quot;v&amp;quot;:13.333333333333334,&amp;quot;e&amp;quot;:32}]}&quot; data-lucid-type=&quot;application/vnd.lucid.text&quot;&gt;&lt;span style=&quot;color: rgb(0, 0, 0);&quot;&gt;Extension:202&lt;br&gt;Hunt Group: Support HG&lt;/span&gt;&lt;/span&gt;" style="shape=hexagon;perimeter=hexagonPerimeter2;whiteSpace=wrap;html=1;fixedSize=1;" parent="WIyWlLk6GJQsqaUBKTNV-1" vertex="1">
          <mxGeometry x="200" y="440" width="160" height="60" as="geometry" />
        </mxCell>
        <mxCell id="zRHetzy9wdYKqyNyWC3m-54" value="" style="edgeStyle=none;rounded=0;orthogonalLoop=1;jettySize=auto;html=1;fontSize=16;" parent="WIyWlLk6GJQsqaUBKTNV-1" source="zRHetzy9wdYKqyNyWC3m-43" edge="1">
          <mxGeometry relative="1" as="geometry">
            <mxPoint x="410" y="630" as="targetPoint" />
          </mxGeometry>
        </mxCell>
        <mxCell id="zRHetzy9wdYKqyNyWC3m-43" value="&lt;span style=&quot;&quot; data-lucid-content=&quot;{&amp;quot;t&amp;quot;:&amp;quot;Extension:200 Hunt Group: ATTCES&amp;quot;,&amp;quot;m&amp;quot;:[{&amp;quot;s&amp;quot;:0,&amp;quot;n&amp;quot;:&amp;quot;c&amp;quot;,&amp;quot;v&amp;quot;:&amp;quot;000000ff&amp;quot;,&amp;quot;e&amp;quot;:32},{&amp;quot;s&amp;quot;:0,&amp;quot;n&amp;quot;:&amp;quot;s&amp;quot;,&amp;quot;v&amp;quot;:13.333333333333334,&amp;quot;e&amp;quot;:32}]}&quot; data-lucid-type=&quot;application/vnd.lucid.text&quot;&gt;&lt;span style=&quot;color: rgb(0, 0, 0);&quot;&gt;Extension:238&lt;br&gt;Hunt Group: PriorityCC&lt;/span&gt;&lt;/span&gt;" style="shape=hexagon;perimeter=hexagonPerimeter2;whiteSpace=wrap;html=1;fixedSize=1;" parent="WIyWlLk6GJQsqaUBKTNV-1" vertex="1">
          <mxGeometry x="200" y="600" width="160" height="60" as="geometry" />
        </mxCell>
        <mxCell id="zRHetzy9wdYKqyNyWC3m-56" value="" style="edgeStyle=none;rounded=0;orthogonalLoop=1;jettySize=auto;html=1;fontSize=16;entryX=-0.011;entryY=0.967;entryDx=0;entryDy=0;entryPerimeter=0;exitX=1;exitY=0.5;exitDx=0;exitDy=0;" parent="WIyWlLk6GJQsqaUBKTNV-1" source="zRHetzy9wdYKqyNyWC3m-44" target="zRHetzy9wdYKqyNyWC3m-50" edge="1">
          <mxGeometry relative="1" as="geometry" />
        </mxCell>
        <mxCell id="zRHetzy9wdYKqyNyWC3m-44" value="&lt;span style=&quot;&quot; data-lucid-content=&quot;{&amp;quot;t&amp;quot;:&amp;quot;Extension:200 Hunt Group: ATTCES&amp;quot;,&amp;quot;m&amp;quot;:[{&amp;quot;s&amp;quot;:0,&amp;quot;n&amp;quot;:&amp;quot;c&amp;quot;,&amp;quot;v&amp;quot;:&amp;quot;000000ff&amp;quot;,&amp;quot;e&amp;quot;:32},{&amp;quot;s&amp;quot;:0,&amp;quot;n&amp;quot;:&amp;quot;s&amp;quot;,&amp;quot;v&amp;quot;:13.333333333333334,&amp;quot;e&amp;quot;:32}]}&quot; data-lucid-type=&quot;application/vnd.lucid.text&quot;&gt;&lt;span style=&quot;color: rgb(0, 0, 0);&quot;&gt;Extension:188&lt;br&gt;Hunt Group: USFS 188&lt;/span&gt;&lt;/span&gt;" style="shape=hexagon;perimeter=hexagonPerimeter2;whiteSpace=wrap;html=1;fixedSize=1;" parent="WIyWlLk6GJQsqaUBKTNV-1" vertex="1">
          <mxGeometry x="200" y="920" width="160" height="60" as="geometry" />
        </mxCell>
        <mxCell id="zRHetzy9wdYKqyNyWC3m-55" value="" style="edgeStyle=none;rounded=0;orthogonalLoop=1;jettySize=auto;html=1;fontSize=16;entryX=0.033;entryY=0.789;entryDx=0;entryDy=0;entryPerimeter=0;exitX=1;exitY=0.5;exitDx=0;exitDy=0;" parent="WIyWlLk6GJQsqaUBKTNV-1" source="zRHetzy9wdYKqyNyWC3m-45" target="zRHetzy9wdYKqyNyWC3m-50" edge="1">
          <mxGeometry relative="1" as="geometry">
            <mxPoint x="359.62433646386285" y="793.4365046957943" as="sourcePoint" />
            <mxPoint x="410" y="793.0799999999999" as="targetPoint" />
          </mxGeometry>
        </mxCell>
        <mxCell id="zRHetzy9wdYKqyNyWC3m-45" value="&lt;span style=&quot;&quot; data-lucid-content=&quot;{&amp;quot;t&amp;quot;:&amp;quot;Extension:200 Hunt Group: ATTCES&amp;quot;,&amp;quot;m&amp;quot;:[{&amp;quot;s&amp;quot;:0,&amp;quot;n&amp;quot;:&amp;quot;c&amp;quot;,&amp;quot;v&amp;quot;:&amp;quot;000000ff&amp;quot;,&amp;quot;e&amp;quot;:32},{&amp;quot;s&amp;quot;:0,&amp;quot;n&amp;quot;:&amp;quot;s&amp;quot;,&amp;quot;v&amp;quot;:13.333333333333334,&amp;quot;e&amp;quot;:32}]}&quot; data-lucid-type=&quot;application/vnd.lucid.text&quot;&gt;&lt;span style=&quot;color: rgb(0, 0, 0);&quot;&gt;Extension:250&lt;br&gt;Hunt Group: Intellor&lt;/span&gt;&lt;/span&gt;" style="shape=hexagon;perimeter=hexagonPerimeter2;whiteSpace=wrap;html=1;fixedSize=1;" parent="WIyWlLk6GJQsqaUBKTNV-1" vertex="1">
          <mxGeometry x="200" y="760" width="160" height="60" as="geometry" />
        </mxCell>
        <mxCell id="1OxyW0Cfibc23PzOv6HA-19" value="" style="edgeStyle=orthogonalEdgeStyle;rounded=0;orthogonalLoop=1;jettySize=auto;html=1;entryX=0;entryY=0.5;entryDx=0;entryDy=0;" parent="WIyWlLk6GJQsqaUBKTNV-1" source="1OxyW0Cfibc23PzOv6HA-1" target="1OxyW0Cfibc23PzOv6HA-35" edge="1">
          <mxGeometry relative="1" as="geometry">
            <mxPoint x="720" y="150" as="targetPoint" />
          </mxGeometry>
        </mxCell>
        <mxCell id="1OxyW0Cfibc23PzOv6HA-1" value="&lt;span style=&quot;&quot; data-lucid-content=&quot;{&amp;quot;t&amp;quot;:&amp;quot;Extension:200 Hunt Group: ATTCES&amp;quot;,&amp;quot;m&amp;quot;:[{&amp;quot;s&amp;quot;:0,&amp;quot;n&amp;quot;:&amp;quot;c&amp;quot;,&amp;quot;v&amp;quot;:&amp;quot;000000ff&amp;quot;,&amp;quot;e&amp;quot;:32},{&amp;quot;s&amp;quot;:0,&amp;quot;n&amp;quot;:&amp;quot;s&amp;quot;,&amp;quot;v&amp;quot;:13.333333333333334,&amp;quot;e&amp;quot;:32}]}&quot; data-lucid-type=&quot;application/vnd.lucid.text&quot;&gt;&lt;span style=&quot;color: rgb(0, 0, 0);&quot;&gt;Extension:450&lt;br&gt;AA: ToATTCESAA&lt;/span&gt;&lt;/span&gt;" style="shape=hexagon;perimeter=hexagonPerimeter2;whiteSpace=wrap;html=1;fixedSize=1;" parent="WIyWlLk6GJQsqaUBKTNV-1" vertex="1">
          <mxGeometry x="480" y="120" width="160" height="60" as="geometry" />
        </mxCell>
        <mxCell id="1OxyW0Cfibc23PzOv6HA-22" value="" style="edgeStyle=orthogonalEdgeStyle;rounded=0;orthogonalLoop=1;jettySize=auto;html=1;fontSize=9;" parent="WIyWlLk6GJQsqaUBKTNV-1" source="1OxyW0Cfibc23PzOv6HA-2" edge="1">
          <mxGeometry relative="1" as="geometry">
            <mxPoint x="690" y="310" as="targetPoint" />
          </mxGeometry>
        </mxCell>
        <mxCell id="1OxyW0Cfibc23PzOv6HA-2" value="&lt;span style=&quot;&quot; data-lucid-content=&quot;{&amp;quot;t&amp;quot;:&amp;quot;Extension:200 Hunt Group: ATTCES&amp;quot;,&amp;quot;m&amp;quot;:[{&amp;quot;s&amp;quot;:0,&amp;quot;n&amp;quot;:&amp;quot;c&amp;quot;,&amp;quot;v&amp;quot;:&amp;quot;000000ff&amp;quot;,&amp;quot;e&amp;quot;:32},{&amp;quot;s&amp;quot;:0,&amp;quot;n&amp;quot;:&amp;quot;s&amp;quot;,&amp;quot;v&amp;quot;:13.333333333333334,&amp;quot;e&amp;quot;:32}]}&quot; data-lucid-type=&quot;application/vnd.lucid.text&quot;&gt;&lt;span style=&quot;color: rgb(0, 0, 0);&quot;&gt;Extension:451&lt;br&gt;AA: ToSalesAA&lt;/span&gt;&lt;/span&gt;" style="shape=hexagon;perimeter=hexagonPerimeter2;whiteSpace=wrap;html=1;fixedSize=1;" parent="WIyWlLk6GJQsqaUBKTNV-1" vertex="1">
          <mxGeometry x="480" y="280" width="160" height="60" as="geometry" />
        </mxCell>
        <mxCell id="1OxyW0Cfibc23PzOv6HA-24" value="" style="edgeStyle=orthogonalEdgeStyle;rounded=0;orthogonalLoop=1;jettySize=auto;html=1;fontSize=9;entryX=0;entryY=0.5;entryDx=0;entryDy=0;" parent="WIyWlLk6GJQsqaUBKTNV-1" source="1OxyW0Cfibc23PzOv6HA-3" target="1OxyW0Cfibc23PzOv6HA-42" edge="1">
          <mxGeometry relative="1" as="geometry" />
        </mxCell>
        <mxCell id="1OxyW0Cfibc23PzOv6HA-3" value="&lt;span style=&quot;&quot; data-lucid-content=&quot;{&amp;quot;t&amp;quot;:&amp;quot;Extension:200 Hunt Group: ATTCES&amp;quot;,&amp;quot;m&amp;quot;:[{&amp;quot;s&amp;quot;:0,&amp;quot;n&amp;quot;:&amp;quot;c&amp;quot;,&amp;quot;v&amp;quot;:&amp;quot;000000ff&amp;quot;,&amp;quot;e&amp;quot;:32},{&amp;quot;s&amp;quot;:0,&amp;quot;n&amp;quot;:&amp;quot;s&amp;quot;,&amp;quot;v&amp;quot;:13.333333333333334,&amp;quot;e&amp;quot;:32}]}&quot; data-lucid-type=&quot;application/vnd.lucid.text&quot;&gt;&lt;span style=&quot;color: rgb(0, 0, 0);&quot;&gt;Extension:452&lt;br&gt;AA: ToSuptAA&lt;/span&gt;&lt;/span&gt;" style="shape=hexagon;perimeter=hexagonPerimeter2;whiteSpace=wrap;html=1;fixedSize=1;" parent="WIyWlLk6GJQsqaUBKTNV-1" vertex="1">
          <mxGeometry x="480" y="440" width="160" height="60" as="geometry" />
        </mxCell>
        <mxCell id="1OxyW0Cfibc23PzOv6HA-4" value="No Overflow&lt;br&gt;This number is likely not published and is only called by the automated systems.&lt;br&gt;&lt;br&gt;When you call this number, it says you reached the priority callback line, and prompts you to leave a voicemail. &lt;strike&gt;This is what happens when you call the support line and press 6&lt;/strike&gt;" style="shape=hexagon;perimeter=hexagonPerimeter2;whiteSpace=wrap;html=1;fixedSize=1;fillColor=#ffe6cc;strokeColor=#d79b00;" parent="WIyWlLk6GJQsqaUBKTNV-1" vertex="1">
          <mxGeometry x="510" y="1270" width="340" height="120" as="geometry" />
        </mxCell>
        <mxCell id="1OxyW0Cfibc23PzOv6HA-31" value="" style="edgeStyle=orthogonalEdgeStyle;rounded=0;orthogonalLoop=1;jettySize=auto;html=1;fontSize=9;entryX=0.004;entryY=0.388;entryDx=0;entryDy=0;entryPerimeter=0;" parent="WIyWlLk6GJQsqaUBKTNV-1" source="1OxyW0Cfibc23PzOv6HA-5" target="1OxyW0Cfibc23PzOv6HA-29" edge="1">
          <mxGeometry relative="1" as="geometry" />
        </mxCell>
        <mxCell id="1OxyW0Cfibc23PzOv6HA-5" value="&lt;span style=&quot;&quot; data-lucid-content=&quot;{&amp;quot;t&amp;quot;:&amp;quot;Extension:200 Hunt Group: ATTCES&amp;quot;,&amp;quot;m&amp;quot;:[{&amp;quot;s&amp;quot;:0,&amp;quot;n&amp;quot;:&amp;quot;c&amp;quot;,&amp;quot;v&amp;quot;:&amp;quot;000000ff&amp;quot;,&amp;quot;e&amp;quot;:32},{&amp;quot;s&amp;quot;:0,&amp;quot;n&amp;quot;:&amp;quot;s&amp;quot;,&amp;quot;v&amp;quot;:13.333333333333334,&amp;quot;e&amp;quot;:32}]}&quot; data-lucid-type=&quot;application/vnd.lucid.text&quot;&gt;&lt;span style=&quot;color: rgb(0, 0, 0);&quot;&gt;Extension:453&lt;br&gt;AA: ToIntellorAA&lt;/span&gt;&lt;/span&gt;" style="shape=hexagon;perimeter=hexagonPerimeter2;whiteSpace=wrap;html=1;fixedSize=1;" parent="WIyWlLk6GJQsqaUBKTNV-1" vertex="1">
          <mxGeometry x="480" y="760" width="160" height="60" as="geometry" />
        </mxCell>
        <mxCell id="1OxyW0Cfibc23PzOv6HA-6" value="No Overflow&lt;br&gt;Goes to Voicemail&lt;br&gt;(Needs to be verified).&lt;br&gt;File emailed to services@event-services.com&lt;br&gt;Voicemail can be cut off" style="shape=hexagon;perimeter=hexagonPerimeter2;whiteSpace=wrap;html=1;fixedSize=1;fillColor=#ffe6cc;strokeColor=#d79b00;" parent="WIyWlLk6GJQsqaUBKTNV-1" vertex="1">
          <mxGeometry x="480" y="890" width="250" height="120" as="geometry" />
        </mxCell>
        <mxCell id="1OxyW0Cfibc23PzOv6HA-7" value="" style="endArrow=classic;html=1;rounded=0;exitX=1.011;exitY=0.078;exitDx=0;exitDy=0;exitPerimeter=0;" parent="WIyWlLk6GJQsqaUBKTNV-1" source="zRHetzy9wdYKqyNyWC3m-50" edge="1">
          <mxGeometry width="50" height="50" relative="1" as="geometry">
            <mxPoint x="430" y="200" as="sourcePoint" />
            <mxPoint x="480" y="150" as="targetPoint" />
          </mxGeometry>
        </mxCell>
        <mxCell id="1OxyW0Cfibc23PzOv6HA-8" value="" style="endArrow=classic;html=1;rounded=0;entryX=0;entryY=0.5;entryDx=0;entryDy=0;exitX=1.011;exitY=0.255;exitDx=0;exitDy=0;exitPerimeter=0;" parent="WIyWlLk6GJQsqaUBKTNV-1" source="zRHetzy9wdYKqyNyWC3m-50" target="1OxyW0Cfibc23PzOv6HA-2" edge="1">
          <mxGeometry width="50" height="50" relative="1" as="geometry">
            <mxPoint x="460" y="360" as="sourcePoint" />
            <mxPoint x="470" y="290" as="targetPoint" />
          </mxGeometry>
        </mxCell>
        <mxCell id="1OxyW0Cfibc23PzOv6HA-11" value="" style="endArrow=classic;html=1;rounded=0;entryX=0;entryY=0.5;entryDx=0;entryDy=0;" parent="WIyWlLk6GJQsqaUBKTNV-1" edge="1">
          <mxGeometry width="50" height="50" relative="1" as="geometry">
            <mxPoint x="440" y="790" as="sourcePoint" />
            <mxPoint x="480" y="790" as="targetPoint" />
          </mxGeometry>
        </mxCell>
        <mxCell id="1OxyW0Cfibc23PzOv6HA-12" value="" style="endArrow=classic;html=1;rounded=0;entryX=0;entryY=0.5;entryDx=0;entryDy=0;exitX=1.022;exitY=0.966;exitDx=0;exitDy=0;exitPerimeter=0;" parent="WIyWlLk6GJQsqaUBKTNV-1" source="zRHetzy9wdYKqyNyWC3m-50" target="1OxyW0Cfibc23PzOv6HA-6" edge="1">
          <mxGeometry width="50" height="50" relative="1" as="geometry">
            <mxPoint x="420" y="970" as="sourcePoint" />
            <mxPoint x="470" y="920" as="targetPoint" />
          </mxGeometry>
        </mxCell>
        <mxCell id="1OxyW0Cfibc23PzOv6HA-14" value="This Extension Rings:" style="shape=offPageConnector;whiteSpace=wrap;html=1;spacingTop=-13;" parent="WIyWlLk6GJQsqaUBKTNV-1" vertex="1">
          <mxGeometry x="200" y="-10" width="160" height="80" as="geometry" />
        </mxCell>
        <mxCell id="1OxyW0Cfibc23PzOv6HA-15" value="Call will Overflow to:" style="shape=offPageConnector;whiteSpace=wrap;html=1;spacingTop=-13;" parent="WIyWlLk6GJQsqaUBKTNV-1" vertex="1">
          <mxGeometry x="480" y="-10" width="160" height="80" as="geometry" />
        </mxCell>
        <mxCell id="1OxyW0Cfibc23PzOv6HA-16" value="&lt;p style=&quot;line-height: 0;&quot;&gt;When a Called Phone Dials&lt;/p&gt;" style="shape=offPageConnector;whiteSpace=wrap;html=1;align=center;verticalAlign=middle;horizontal=1;spacingTop=-15;" parent="WIyWlLk6GJQsqaUBKTNV-1" vertex="1">
          <mxGeometry x="10" y="-10" width="150" height="80" as="geometry" />
        </mxCell>
        <mxCell id="1OxyW0Cfibc23PzOv6HA-18" value="Where this Goes&lt;br&gt;3 - Rings the Sales Group, if no one answers, it prompts you to leave a voicemail, but then rings a different group with more people in it&lt;br&gt;4 - Rings the Event Services Group, and it prompts you to leave a priority voicemail&lt;br&gt;5 - Rings the Support Group, and it prompts you to leave a priority voicemail&lt;br&gt;6 - Pauses a moment, then says there is no one available to take your call - This goes to accounting &amp;amp; voicemail goes to Marsha (To be fixed)&lt;br&gt;9 - Dial by Name Directory - Works for some individuals but not others.&amp;nbsp; (Russ &amp;amp; Tania works | Anne &amp;amp; Roy Fails)&amp;nbsp;" style="shape=document;whiteSpace=wrap;html=1;boundedLbl=1;align=left;" parent="WIyWlLk6GJQsqaUBKTNV-1" vertex="1">
          <mxGeometry x="1100" y="100" width="760" height="130" as="geometry" />
        </mxCell>
        <mxCell id="1OxyW0Cfibc23PzOv6HA-20" value="&lt;font size=&quot;1&quot; style=&quot;&quot;&gt;&lt;b style=&quot;font-size: 9px;&quot;&gt;You get a prompt to leave a message, but it never allows the message to start recording&lt;/b&gt;&lt;/font&gt;" style="shape=document;whiteSpace=wrap;html=1;boundedLbl=1;align=left;" parent="WIyWlLk6GJQsqaUBKTNV-1" vertex="1">
          <mxGeometry x="1010" y="270" width="120" height="80" as="geometry" />
        </mxCell>
        <mxCell id="1OxyW0Cfibc23PzOv6HA-21" value="&lt;font style=&quot;font-size: 9px;&quot;&gt;&lt;b&gt;Also the sales group isn&#39;t ringing all the right extensions.&lt;/b&gt;&lt;/font&gt;" style="shape=document;whiteSpace=wrap;html=1;boundedLbl=1;fontSize=10;align=left;" parent="WIyWlLk6GJQsqaUBKTNV-1" vertex="1">
          <mxGeometry x="1130" y="270" width="120" height="80" as="geometry" />
        </mxCell>
        <mxCell id="1OxyW0Cfibc23PzOv6HA-23" value="&lt;font style=&quot;font-size: 9px;&quot;&gt;&lt;strike&gt;Call 888-796-6118 for Support&amp;nbsp;&lt;br&gt;&lt;/strike&gt;or&lt;br&gt;Leave a priority Voicemail Probably (not working) gets emailed to prioritycc@intellor.com&lt;/font&gt;" style="shape=document;whiteSpace=wrap;html=1;boundedLbl=1;align=left;" parent="WIyWlLk6GJQsqaUBKTNV-1" vertex="1">
          <mxGeometry x="390" y="1420" width="170" height="80" as="geometry" />
        </mxCell>
        <mxCell id="1OxyW0Cfibc23PzOv6HA-27" value="Email2Phone.net&lt;br&gt;Email based on Filters&lt;br&gt;Escalation 3 or Voicemail" style="shape=document;whiteSpace=wrap;html=1;boundedLbl=1;fontSize=9;" parent="WIyWlLk6GJQsqaUBKTNV-1" vertex="1">
          <mxGeometry x="820" y="1430" width="120" height="80" as="geometry" />
        </mxCell>
        <mxCell id="1OxyW0Cfibc23PzOv6HA-29" value="Voice Prompt&lt;br&gt;3 - Teleconference or Webinar Services&lt;br&gt;4 - Assistance Scheduling&lt;br&gt;5 - Technology or Support Attending&lt;br&gt;6 - General or All Other&lt;br&gt;9 - Directory" style="shape=document;whiteSpace=wrap;html=1;boundedLbl=1;align=left;" parent="WIyWlLk6GJQsqaUBKTNV-1" vertex="1">
          <mxGeometry x="670" y="740" width="220" height="130" as="geometry" />
        </mxCell>
        <mxCell id="1OxyW0Cfibc23PzOv6HA-30" value="Where this Goes (Needs to be verified)(should be the same as 7200)&lt;br&gt;3 - Rings the Sales Group, if no one answers, it prompts you to leave a voicemail, but then rings a different group with more people in it&lt;br&gt;4 - Rings the Event Services Group, and it prompts you to leave a priority voicemail&lt;br&gt;5 - Rings the Support Group, and it prompts you to leave a priority voicemail&lt;br&gt;6 - Pauses a moment, then says there is no one available to take your call - This goes to accounting &amp;amp; voicemail goes to Marsha (To be fixed)&lt;br&gt;9 - Dial by Name Directory - Works for some individuals but not others.&amp;nbsp; (Russ &amp;amp; Tania works | Anne &amp;amp; Roy Fails)&amp;nbsp;" style="shape=document;whiteSpace=wrap;html=1;boundedLbl=1;align=left;" parent="WIyWlLk6GJQsqaUBKTNV-1" vertex="1">
          <mxGeometry x="890" y="740" width="760" height="130" as="geometry" />
        </mxCell>
        <mxCell id="1OxyW0Cfibc23PzOv6HA-32" value="Voicemails not going to prioritycc@intellor.com" style="verticalLabelPosition=middle;verticalAlign=middle;html=1;shape=mxgraph.basic.polygon;polyCoords=[[0.25,0],[0.75,0],[1,0.25],[1,0.75],[0.75,1],[0.25,1],[0,0.75],[0,0.25]];polyline=0;fontSize=9;labelPosition=center;align=center;whiteSpace=wrap;fillColor=#f8cecc;strokeColor=#b85450;" parent="WIyWlLk6GJQsqaUBKTNV-1" vertex="1">
          <mxGeometry x="630" y="1410" width="100" height="100" as="geometry" />
        </mxCell>
        <mxCell id="1OxyW0Cfibc23PzOv6HA-49" value="" style="edgeStyle=orthogonalEdgeStyle;rounded=0;orthogonalLoop=1;jettySize=auto;html=1;fontSize=9;entryX=-0.001;entryY=0.389;entryDx=0;entryDy=0;entryPerimeter=0;" parent="WIyWlLk6GJQsqaUBKTNV-1" source="1OxyW0Cfibc23PzOv6HA-35" target="1OxyW0Cfibc23PzOv6HA-17" edge="1">
          <mxGeometry relative="1" as="geometry" />
        </mxCell>
        <mxCell id="1OxyW0Cfibc23PzOv6HA-35" value="Extension:460&lt;br&gt;VM:AA:ATTCESEAA" style="shape=step;perimeter=stepPerimeter;whiteSpace=wrap;html=1;fixedSize=1;fontSize=9;" parent="WIyWlLk6GJQsqaUBKTNV-1" vertex="1">
          <mxGeometry x="670" y="120" width="140" height="60" as="geometry" />
        </mxCell>
        <mxCell id="1OxyW0Cfibc23PzOv6HA-40" style="edgeStyle=orthogonalEdgeStyle;rounded=0;orthogonalLoop=1;jettySize=auto;html=1;fontSize=9;" parent="WIyWlLk6GJQsqaUBKTNV-1" source="1OxyW0Cfibc23PzOv6HA-39" edge="1">
          <mxGeometry relative="1" as="geometry">
            <mxPoint x="870" y="310" as="targetPoint" />
          </mxGeometry>
        </mxCell>
        <mxCell id="1OxyW0Cfibc23PzOv6HA-39" value="Extension:461&lt;br&gt;VM:AA:SalesEAA" style="shape=step;perimeter=stepPerimeter;whiteSpace=wrap;html=1;fixedSize=1;fontSize=9;" parent="WIyWlLk6GJQsqaUBKTNV-1" vertex="1">
          <mxGeometry x="670" y="280" width="140" height="60" as="geometry" />
        </mxCell>
        <mxCell id="1OxyW0Cfibc23PzOv6HA-51" value="" style="edgeStyle=orthogonalEdgeStyle;rounded=0;orthogonalLoop=1;jettySize=auto;html=1;fontSize=9;entryX=0.006;entryY=0.357;entryDx=0;entryDy=0;entryPerimeter=0;" parent="WIyWlLk6GJQsqaUBKTNV-1" source="1OxyW0Cfibc23PzOv6HA-42" target="1OxyW0Cfibc23PzOv6HA-50" edge="1">
          <mxGeometry relative="1" as="geometry" />
        </mxCell>
        <mxCell id="1OxyW0Cfibc23PzOv6HA-42" value="Extension:462&lt;br&gt;VM:AA:EventSupotEAA" style="shape=step;perimeter=stepPerimeter;whiteSpace=wrap;html=1;fixedSize=1;fontSize=9;" parent="WIyWlLk6GJQsqaUBKTNV-1" vertex="1">
          <mxGeometry x="670" y="440" width="140" height="60" as="geometry" />
        </mxCell>
        <mxCell id="1OxyW0Cfibc23PzOv6HA-17" value="Voice Prompt&lt;br&gt;3 - Teleconference or Webinar Services&lt;br&gt;4 - Assistance Scheduling&lt;br&gt;5 - Technology or Support Attending&lt;br&gt;6 - General or All Other&lt;br&gt;9 - Directory" style="shape=document;whiteSpace=wrap;html=1;boundedLbl=1;align=left;" parent="WIyWlLk6GJQsqaUBKTNV-1" vertex="1">
          <mxGeometry x="880" y="100" width="220" height="130" as="geometry" />
        </mxCell>
        <mxCell id="1OxyW0Cfibc23PzOv6HA-50" value="Thank you for contacting support.&amp;nbsp; If you require assistance scheduling an event or have questions about an existing request, please send an email to reservations@event-services.com and a member of our scheduling team will contact you.&lt;br&gt;&lt;br style=&quot;font-size: 7px;&quot;&gt;If you are having trouble connecting to an event that is currently live and require urgent and immediate assistance, &lt;b&gt;press 6&lt;/b&gt; to request a priority call back and a member of our Oncall team will be notified of your request.&lt;br&gt;&lt;br&gt;&lt;span style=&quot;font-style: normal;&quot;&gt;&lt;b&gt;Pressing 6 will take you to Extension 238&lt;/b&gt;&lt;/span&gt;" style="shape=callout;whiteSpace=wrap;perimeter=calloutPerimeter;fontSize=7;verticalAlign=middle;labelPosition=center;verticalLabelPosition=middle;align=center;fontStyle=2;html=1;" parent="WIyWlLk6GJQsqaUBKTNV-1" vertex="1">
          <mxGeometry x="850" y="420" width="210" height="140" as="geometry" />
        </mxCell>
        <mxCell id="zRHetzy9wdYKqyNyWC3m-50" value="When No One Picks Up" style="rounded=0;fontSize=16;direction=west;flipH=1;flipV=1;verticalAlign=middle;html=1;horizontal=0;fontStyle=1" parent="WIyWlLk6GJQsqaUBKTNV-1" vertex="1">
          <mxGeometry x="410" y="80" width="30" height="900" as="geometry" />
        </mxCell>
        <mxCell id="1OxyW0Cfibc23PzOv6HA-57" value="&lt;i&gt;Thank you for contacting sales please leave your message and a member of the team will get back to you as soon as possible&lt;/i&gt;" style="shape=callout;whiteSpace=wrap;html=1;perimeter=calloutPerimeter;fontSize=7;" parent="WIyWlLk6GJQsqaUBKTNV-1" vertex="1">
          <mxGeometry x="870" y="270" width="140" height="100" as="geometry" />
        </mxCell>
        <mxCell id="ZYtYMnsFKIddYbsaCxcA-0" value="Thank you for contacting support.&amp;nbsp; If you require assistance scheduling an event or have questions about an existing request, please send an email to reservations@event-services.com and a member of our scheduling team will contact you.&lt;br&gt;&lt;br style=&quot;font-size: 7px;&quot;&gt;If you are having trouble connecting to an event that is currently live and require urgent and immediate assistance, &lt;b&gt;press 6&lt;/b&gt; to request a priority call back and a member of our Oncall team will be notified of your request.&lt;br&gt;*Beep*&lt;br&gt;&lt;br&gt;&lt;span style=&quot;font-style: normal;&quot;&gt;&lt;b&gt;Pressing 6 will do nothing&lt;/b&gt;&lt;/span&gt;" style="shape=callout;whiteSpace=wrap;perimeter=calloutPerimeter;fontSize=7;verticalAlign=middle;labelPosition=center;verticalLabelPosition=middle;align=center;fontStyle=2;html=1;" parent="WIyWlLk6GJQsqaUBKTNV-1" vertex="1">
          <mxGeometry x="499.24" y="570" width="210" height="140" as="geometry" />
        </mxCell>
        <mxCell id="ZYtYMnsFKIddYbsaCxcA-1" value="&lt;font style=&quot;font-size: 7px;&quot;&gt;Caller can leave a voicemail &lt;br&gt;after the beep, voicemail will &lt;br&gt;send when it stops &lt;br&gt;hearing noise.&lt;/font&gt;" style="shape=step;perimeter=stepPerimeter;whiteSpace=wrap;html=1;fixedSize=1;fontSize=7;verticalAlign=middle;align=center;spacingRight=-11;" parent="WIyWlLk6GJQsqaUBKTNV-1" vertex="1">
          <mxGeometry x="719.24" y="600" width="120" height="60" as="geometry" />
        </mxCell>
        <mxCell id="ZYtYMnsFKIddYbsaCxcA-2" value="" style="endArrow=classic;html=1;rounded=0;" parent="WIyWlLk6GJQsqaUBKTNV-1" edge="1">
          <mxGeometry width="50" height="50" relative="1" as="geometry">
            <mxPoint x="709.24" y="630.0000000000002" as="sourcePoint" />
            <mxPoint x="739.24" y="630.0000000000002" as="targetPoint" />
          </mxGeometry>
        </mxCell>
        <mxCell id="ZYtYMnsFKIddYbsaCxcA-3" value="" style="endArrow=classic;html=1;rounded=0;fontSize=7;entryX=0;entryY=0.5;entryDx=30;entryDy=0;entryPerimeter=0;exitX=1;exitY=0.5;exitDx=0;exitDy=0;" parent="WIyWlLk6GJQsqaUBKTNV-1" source="ZYtYMnsFKIddYbsaCxcA-1" edge="1">
          <mxGeometry width="50" height="50" relative="1" as="geometry">
            <mxPoint x="809.24" y="630" as="sourcePoint" />
            <mxPoint x="920" y="630" as="targetPoint" />
          </mxGeometry>
        </mxCell>
        <mxCell id="ZYtYMnsFKIddYbsaCxcA-4" value="" style="endArrow=classic;html=1;rounded=0;exitX=1;exitY=0.611;exitDx=0;exitDy=0;exitPerimeter=0;entryX=0.002;entryY=0.428;entryDx=0;entryDy=0;entryPerimeter=0;" parent="WIyWlLk6GJQsqaUBKTNV-1" source="zRHetzy9wdYKqyNyWC3m-50" target="ZYtYMnsFKIddYbsaCxcA-0" edge="1">
          <mxGeometry width="50" height="50" relative="1" as="geometry">
            <mxPoint x="480" y="670" as="sourcePoint" />
            <mxPoint x="530" y="620" as="targetPoint" />
          </mxGeometry>
        </mxCell>
        <mxCell id="yg-fpTiEC6ugv2-7Gty4-1" value="" style="edgeStyle=orthogonalEdgeStyle;rounded=0;orthogonalLoop=1;jettySize=auto;html=1;fontSize=7;" parent="WIyWlLk6GJQsqaUBKTNV-1" source="StP3gKa0RScyUDWRZc6F-2" edge="1">
          <mxGeometry relative="1" as="geometry">
            <mxPoint x="1120" y="630" as="targetPoint" />
          </mxGeometry>
        </mxCell>
        <mxCell id="StP3gKa0RScyUDWRZc6F-2" value="&lt;font style=&quot;font-size: 7px;&quot;&gt;Voicemail gets routed to &lt;br&gt;PriorityCC@intellor.com &lt;br&gt;Group&lt;/font&gt;" style="shape=step;perimeter=stepPerimeter;whiteSpace=wrap;html=1;fixedSize=1;" parent="WIyWlLk6GJQsqaUBKTNV-1" vertex="1">
          <mxGeometry x="900" y="600" width="120" height="60" as="geometry" />
        </mxCell>
        <mxCell id="yg-fpTiEC6ugv2-7Gty4-4" value="" style="edgeStyle=orthogonalEdgeStyle;rounded=0;orthogonalLoop=1;jettySize=auto;html=1;fontSize=7;" parent="WIyWlLk6GJQsqaUBKTNV-1" source="yg-fpTiEC6ugv2-7Gty4-2" target="yg-fpTiEC6ugv2-7Gty4-3" edge="1">
          <mxGeometry relative="1" as="geometry" />
        </mxCell>
        <mxCell id="yg-fpTiEC6ugv2-7Gty4-2" value="PriorityCC@intellor.com&lt;br&gt;group includes&amp;nbsp;&lt;br&gt;email2phone.&amp;nbsp;" style="shape=step;perimeter=stepPerimeter;whiteSpace=wrap;html=1;fixedSize=1;fontSize=7;" parent="WIyWlLk6GJQsqaUBKTNV-1" vertex="1">
          <mxGeometry x="1100" y="600" width="120" height="60" as="geometry" />
        </mxCell>
        <mxCell id="yg-fpTiEC6ugv2-7Gty4-3" value="Email2phone alerts oncall" style="rounded=0;whiteSpace=wrap;html=1;fontSize=7;" parent="WIyWlLk6GJQsqaUBKTNV-1" vertex="1">
          <mxGeometry x="1270" y="600" width="120" height="60" as="geometry" />
        </mxCell>
      </root>
    </mxGraphModel>
  </diagram>
</mxfile>
